HIERARCHY
ROOT hip
{
  OFFSET 0 0 0
  CHANNELS 6 Xposition Yposition Zposition Zrotation Yrotation Xrotation
  JOINT abdomen
  {
    OFFSET 0 20.6881 -0.73152
    CHANNELS 3 Zrotation Xrotation Yrotation
    JOINT chest
    {
      OFFSET 0 11.7043 -0.48768
      CHANNELS 3 Zrotation Xrotation Yrotation
      JOINT neck
      {
        OFFSET 0 22.1894 -2.19456
        CHANNELS 3 Zrotation Xrotation Yrotation
        JOINT head
        {
          OFFSET -0.24384 7.07133 1.2192
          CHANNELS 3 Zrotation Xrotation Yrotation
          JOINT leftEye
          {
            OFFSET 4.14528 8.04674 8.04672
            CHANNELS 3 Zrotation Xrotation Yrotation
            End Site
            {
              OFFSET 1 0 0
            }
          }
          JOINT rightEye
          {
            OFFSET -3.6576 8.04674 8.04672
            CHANNELS 3 Zrotation Xrotation Yrotation
            End Site
            {
              OFFSET 1 0 0
            }
          }
        }
      }
      JOINT rCollar
      {
        OFFSET -2.68224 19.2634 -4.8768
        CHANNELS 3 Zrotation Xrotation Yrotation
        JOINT rShldr
        {
          OFFSET -8.77824 -1.95073 1.46304
          CHANNELS 3 Zrotation Xrotation Yrotation
          JOINT rForeArm
          {
            OFFSET -28.1742 -1.7115 0.48768
            CHANNELS 3 Zrotation Xrotation Yrotation
            JOINT rHand
            {
              OFFSET -22.5879 0.773209 7.07136
              CHANNELS 3 Zrotation Xrotation Yrotation
              JOINT rThumb1
              {
                OFFSET -1.2192 -0.487915 3.41376
                CHANNELS 3 Zrotation Xrotation Yrotation
                JOINT rThumb2
                {
                  OFFSET -3.37035 -0.52449 3.41376
                  CHANNELS 3 Zrotation Xrotation Yrotation
                  End Site
                  {
                    OFFSET -1.78271 -1.18214 1.43049
                  }
                }
              }
              JOINT rIndex1
              {
                OFFSET -7.75947 0.938293 5.60832
                CHANNELS 3 Zrotation Xrotation Yrotation
                JOINT rIndex2
                {
                  OFFSET -2.54057 -0.884171 1.56538
                  CHANNELS 3 Zrotation Xrotation Yrotation
                  End Site
                  {
                    OFFSET -1.62519 -0.234802 1.16502
                  }
                }
              }
              JOINT rMid1
              {
                OFFSET -8.24714 1.18213 3.41376
                CHANNELS 3 Zrotation Xrotation Yrotation
                JOINT rMid2
                {
                  OFFSET -3.10165 -0.590103 1.0647
                  CHANNELS 3 Zrotation Xrotation Yrotation
                  End Site
                  {
                    OFFSET -2.48547 -0.328903 0.83742
                  }
                }
              }
              JOINT rRing1
              {
                OFFSET -8.82822 0.546677 1.51678
                CHANNELS 3 Zrotation Xrotation Yrotation
                JOINT rRing2
                {
                  OFFSET -2.60934 -0.819778 -0.0198488
                  CHANNELS 3 Zrotation Xrotation Yrotation
                  End Site
                  {
                    OFFSET -2.33842 -0.294052 0.168128
                  }
                }
              }
              JOINT rPinky1
              {
                OFFSET -8.27202 -0.0477905 -0.4584
                CHANNELS 3 Zrotation Xrotation Yrotation
                JOINT rPinky2
                {
                  OFFSET -1.82734 -0.647385 -0.700984
                  CHANNELS 3 Zrotation Xrotation Yrotation
                  End Site
                  {
                    OFFSET -1.69225 -0.51767 -0.607171
                  }
                }
              }
            }
          }
        }
      }
      JOINT lCollar
      {
        OFFSET 2.68224 19.2634 -4.8768
        CHANNELS 3 Zrotation Xrotation Yrotation
        JOINT lShldr
        {
          OFFSET 8.77824 -1.95073 1.46304
          CHANNELS 3 Zrotation Xrotation Yrotation
          JOINT lForeArm
          {
            OFFSET 28.1742 -1.7115 0.48768
            CHANNELS 3 Zrotation Xrotation Yrotation
            JOINT lHand
            {
              OFFSET 22.5879 0.773209 7.07136
              CHANNELS 3 Zrotation Xrotation Yrotation
              JOINT lThumb1
              {
                OFFSET 1.2192 -0.487915 3.41376
                CHANNELS 3 Zrotation Xrotation Yrotation
                JOINT lThumb2
                {
                  OFFSET 3.37035 -0.52449 3.41376
                  CHANNELS 3 Zrotation Xrotation Yrotation
                  End Site
                  {
                    OFFSET 1.78271 -1.18214 1.43049
                  }
                }
              }
              JOINT lIndex1
              {
                OFFSET 7.75947 0.938293 5.60832
                CHANNELS 3 Zrotation Xrotation Yrotation
                JOINT lIndex2
                {
                  OFFSET 2.54057 -0.884171 1.56538
                  CHANNELS 3 Zrotation Xrotation Yrotation
                  End Site
                  {
                    OFFSET 1.62519 -0.234802 1.16502
                  }
                }
              }
              JOINT lMid1
              {
                OFFSET 8.24714 1.18213 3.41376
                CHANNELS 3 Zrotation Xrotation Yrotation
                JOINT lMid2
                {
                  OFFSET 3.10165 -0.590103 1.0647
                  CHANNELS 3 Zrotation Xrotation Yrotation
                  End Site
                  {
                    OFFSET 2.48547 -0.328903 0.83742
                  }
                }
              }
              JOINT lRing1
              {
                OFFSET 8.82822 0.546677 1.51678
                CHANNELS 3 Zrotation Xrotation Yrotation
                JOINT lRing2
                {
                  OFFSET 2.60934 -0.819778 -0.0198488
                  CHANNELS 3 Zrotation Xrotation Yrotation
                  End Site
                  {
                    OFFSET 2.33842 -0.294052 0.168128
                  }
                }
              }
              JOINT lPinky1
              {
                OFFSET 8.27202 -0.0477905 -0.4584
                CHANNELS 3 Zrotation Xrotation Yrotation
                JOINT lPinky2
                {
                  OFFSET 1.82734 -0.647385 -0.700984
                  CHANNELS 3 Zrotation Xrotation Yrotation
                  End Site
                  {
                    OFFSET 1.69225 -0.51767 -0.607171
                  }
                }
              }
            }
          }
        }
      }
    }
  }
  JOINT rButtock
  {
    OFFSET -8.77824 4.35084 1.2192
    CHANNELS 3 Zrotation Xrotation Yrotation
    JOINT rThigh
    {
      OFFSET 0 -1.70687 -2.19456
      CHANNELS 3 Zrotation Xrotation Yrotation
      JOINT rShin
      {
        OFFSET 0 -36.8199 0.73152
        CHANNELS 3 Zrotation Xrotation Yrotation
        JOINT rFoot
        {
          OFFSET 0.73152 -45.1104 -5.12064
          CHANNELS 3 Zrotation Xrotation Yrotation
          End Site
          {
            OFFSET -1.1221 -3.69964 12.103
          }
        }
      }
    }
  }
  JOINT lButtock
  {
    OFFSET 8.77824 4.35084 1.2192
    CHANNELS 3 Zrotation Xrotation Yrotation
    JOINT lThigh
    {
      OFFSET 0 -1.70687 -2.19456
      CHANNELS 3 Zrotation Xrotation Yrotation
      JOINT lShin
      {
        OFFSET 0 -36.8199 0.73152
        CHANNELS 3 Zrotation Xrotation Yrotation
        JOINT lFoot
        {
          OFFSET -0.73152 -45.1104 -5.12064
          CHANNELS 3 Zrotation Xrotation Yrotation
          End Site
          {
            OFFSET 1.1221 -3.69964 12.103
          }
        }
      }
    }
  }
}
MOTION
Frames:	8
Frame Time:	0.00833333
136.591 85.3326 -8.39345 0.0 0.0 0.0 1.16874 -0.00493877 0.0322834 0.322751 -0.00472398 0.0559146 1.48414e-14 -1.59028e-15 -3.7272e-17 4.4652e-14 3.18055e-15 -8.85213e-17 -0.0 0.0 0.0 -0.0 0.0 0.0 7.50304e-15 -1.94126e-19 9.93923e-17 1.59041e-13 2.85753e-16 1.19271e-15 2.6904e-12 -8.00506e-13 -2.22639e-14 3.07606e-11 8.1457e-13 -4.13472e-14 7.25619e-11 2.72143e-14 -1.49486e-13 1.25304e-10 4.45278e-14 -2.5842e-13 7.25659e-11 2.82274e-14 -1.55847e-13 7.73091 5.47488 0.417314 7.25619e-11 2.71341e-14 -1.43125e-13 2.90554 0.965183 0.102902 7.25644e-11 2.73329e-14 -1.4551e-13 10.2786 0.731801 0.0259123 7.25564e-11 2.90226e-14 -1.39944e-13 2.22167 -0.733487 -0.20892 7.50569e-15 1.16475e-18 -1.98785e-16 1.53139e-13 3.10601e-17 -3.97569e-16 2.68836e-12 8.06072e-13 -5.08889e-14 3.07619e-11 -8.03065e-13 -3.18055e-15 7.25623e-11 2.56735e-15 -1.43125e-13 1.25315e-10 0.0 -2.47288e-13 7.25576e-11 3.18055e-15 -1.36764e-13 -7.73091 5.47488 -0.417314 7.25626e-11 2.38542e-15 -1.49486e-13 -2.90554 0.965183 -0.102902 7.25517e-11 2.48481e-15 -1.4392e-13 -10.2786 0.731801 -0.0259123 7.25671e-11 4.77083e-15 -1.52667e-13 -2.22167 -0.733487 0.20892 -2.03217e-16 0.0 -3.88251e-19 1.35598 -5.84649 -0.122724 0.001131 5.03397 0.0413951 -0.480992 0.811105 0.071105 2.03217e-16 0.0 3.88251e-19 0.426549 -1.91991 0.00997013 0.00898865 -2.0786 0.074076 0.459153 3.99698 -0.132468
132.986 83.6045 -12.0 4.1095 -67.4782 3.3855 2.69833 -1.06726 3.8151 -0.763585 -0.776595 1.09478 0.1222 3.80337 4.69975 -0.733382 -5.22162 9.24894 -0.0 0.0 0.0 -0.0 0.0 0.0 1.38684e-14 1.93291e-14 3.40419e-14 23.3899 -0.188966 0.215743 -2.9837 -1.17329 4.84466 0.0114183 2.37065 0.332143 -7.74829e-11 -1.8484e-11 -8.5194e-11 -1.33942e-10 -3.1917e-11 -1.46258e-10 -7.7476e-11 -1.84833e-11 -8.52048e-11 7.73091 5.47488 0.417314 -7.74825e-11 -1.8485e-11 -8.51894e-11 2.90554 0.965183 0.102902 -7.74794e-11 -1.84849e-11 -8.51913e-11 10.2786 0.731801 0.0259123 -7.74879e-11 -1.84829e-11 -8.51871e-11 2.22167 -0.733487 -0.20892 1.38653e-14 1.93289e-14 3.37561e-14 -24.2574 -0.630461 2.83123 5.48827 -2.81206 -8.19823 -0.0400581 4.44208 -0.617535 -1.23437e-10 -8.02602e-11 -2.62831e-11 -2.13779e-10 -1.35516e-10 -4.26369e-11 -1.23441e-10 -8.0261e-11 -2.62738e-11 -7.73091 5.47488 -0.417314 -1.23437e-10 -8.0261e-11 -2.62831e-11 -2.90554 0.965183 -0.102902 -1.23446e-10 -8.02611e-11 -2.62805e-11 -10.2786 0.731801 -0.0259123 -1.23432e-10 -8.02588e-11 -2.62882e-11 -2.22167 -0.733487 0.20892 -2.03217e-16 0.0 -3.88251e-19 0.917575 -9.44718 -2.13192 0.0477483 10.7379 0.200329 -1.44073 -5.50882 -6.94681 2.03217e-16 0.0 3.88251e-19 2.39216 -7.63089 -3.33877 -0.0012059 6.49038 -0.0644685 0.403308 -1.43462 -0.350652
133.006 83.5493 -11.5208 3.0358 -67.8849 4.1906 4.4967 -2.15477 7.79235 -1.89882 -1.59452 2.18557 -0.424932 7.74669 9.79408 0.245733 -10.2865 19.371 -0.0 0.0 0.0 -0.0 0.0 0.0 2.19491e-14 4.10749e-14 7.20594e-14 48.0844 -0.321237 0.510746 -5.86954 -2.35208 9.89155 -0.0064962 4.87689 0.685216 -2.57436e-10 -4.17814e-11 -1.66544e-10 -4.44779e-10 -7.21725e-11 -2.85617e-10 -2.57426e-10 -4.1781e-11 -1.66559e-10 7.73091 5.47488 0.417314 -2.57435e-10 -4.17833e-11 -1.66541e-10 2.90554 0.965183 0.102902 -2.57431e-10 -4.17834e-11 -1.66542e-10 10.2786 0.731801 0.0259123 -2.5744e-10 -4.1781e-11 -1.66539e-10 2.22167 -0.733487 -0.20892 2.19403e-14 4.10731e-14 7.17861e-14 -49.8386 -1.3955 5.83137 10.4265 -5.59473 -16.9307 0.0229185 9.13531 -1.28268 -3.56182e-10 -1.72783e-10 -6.51399e-11 -6.16537e-10 -2.91537e-10 -1.06453e-10 -3.56186e-10 -1.72785e-10 -6.51272e-11 -7.73091 5.47488 -0.417314 -3.56182e-10 -1.72784e-10 -6.5133e-11 -2.90554 0.965183 -0.102902 -3.56189e-10 -1.72785e-10 -6.51335e-11 -10.2786 0.731801 -0.0259123 -3.56175e-10 -1.72782e-10 -6.51401e-11 -2.22167 -0.733487 0.20892 -2.03217e-16 0.0 -3.88251e-19 0.183421 -13.2403 -4.35163 0.0611085 16.7723 0.377489 -4.14818 -11.8884 -14.5988 2.03217e-16 0.0 3.88251e-19 3.74063 -13.6168 -7.0367 0.0342912 15.5577 -0.218183 0.300581 -7.16283 -0.578687
133.045 83.4952 -11.0069 2.4703 -68.3856 4.6598 6.17581 -3.13607 11.396 -2.85227 -2.31721 3.17482 -1.51427 11.1007 14.342 2.7636 -14.0206 28.5556 -0.0 0.0 0.0 -0.0 0.0 0.0 2.65993e-14 5.79877e-14 1.01927e-13 70.1741 -0.566866 0.647258 -8.36204 -3.41937 14.5574 -0.0487405 7.11099 1.00329 -3.77572e-10 -5.55064e-11 -2.55283e-10 -6.52434e-10 -9.58402e-11 -4.38257e-10 -3.7756e-10 -5.55063e-11 -2.55303e-10 7.73091 5.47488 0.417314 -3.77571e-10 -5.55091e-11 -2.55282e-10 2.90554 0.965183 0.102902 -3.77567e-10 -5.55093e-11 -2.55283e-10 10.2786 0.731801 0.0259123 -3.77577e-10 -5.55067e-11 -2.55281e-10 2.22167 -0.733487 -0.20892 2.65844e-14 5.79844e-14 1.01666e-13 -72.586 -1.87292 8.49774 14.1147 -7.74674 -24.8063 0.173791 13.32 -1.89812 -5.15437e-10 -2.40786e-10 -7.85631e-11 -8.91966e-10 -4.06549e-10 -1.27416e-10 -5.1544e-10 -2.40789e-10 -7.85478e-11 -7.73091 5.47488 -0.417314 -5.15437e-10 -2.40788e-10 -7.85504e-11 -2.90554 0.965183 -0.102902 -5.15442e-10 -2.40788e-10 -7.85536e-11 -10.2786 0.731801 -0.0259123 -5.15429e-10 -2.40786e-10 -7.85592e-11 -2.22167 -0.733487 0.20892 -2.03217e-16 0.0 -3.88251e-19 -0.745792 -16.5718 -6.32869 0.0389482 22.1449 0.54845 -8.06448 -17.0315 -21.8921 2.03217e-16 0.0 3.88251e-19 4.23402 -18.7935 -10.5138 0.110755 23.6279 -0.371352 0.164792 -12.2967 -0.805823
133.086 83.4646 -10.4679 1.8843 -68.9468 5.1537 7.28021 -3.90069 14.0528 -3.40999 -2.80466 3.90807 -2.58659 13.2946 17.2842 5.58425 -16.0811 34.6117 -0.0 0.0 0.0 -0.0 0.0 0.0 2.26733e-14 6.28179e-14 1.11419e-13 85.7462 -1.09595 0.387519 -10.24 -4.28852 18.2524 -0.0929957 8.66567 1.22735 -3.48169e-10 -4.53006e-11 -3.62497e-10 -6.02135e-10 -7.80381e-11 -6.24096e-10 -3.48155e-10 -4.53006e-11 -3.6252e-10 7.73091 5.47488 0.417314 -3.48168e-10 -4.53038e-11 -3.62497e-10 2.90554 0.965183 0.102902 -3.48163e-10 -4.53039e-11 -3.62498e-10 10.2786 0.731801 0.0259123 -3.48173e-10 -4.53014e-11 -3.62497e-10 2.22167 -0.733487 -0.20892 2.26512e-14 6.28136e-14 1.1117e-13 -88.4289 -1.65595 10.3234 16.3135 -8.98173 -30.3371 0.334756 16.2391 -2.34606 -4.90966e-10 -2.47489e-10 -2.84024e-11 -8.49069e-10 -4.19041e-10 -4.12478e-11 -4.90969e-10 -2.47493e-10 -2.83865e-11 -7.73091 5.47488 -0.417314 -4.90966e-10 -2.47491e-10 -2.83865e-11 -2.90554 0.965183 -0.102902 -4.9097e-10 -2.47492e-10 -2.83912e-11 -10.2786 0.731801 -0.0259123 -4.90958e-10 -2.4749e-10 -2.8396e-11 -2.22167 -0.733487 0.20892 -2.03217e-16 0.0 -3.88251e-19 -1.57067 -18.823 -7.54006 0.00258733 25.8636 0.67728 -11.6705 -20.1442 -27.4019 2.03217e-16 0.0 3.88251e-19 4.12964 -22.1984 -12.9861 0.193136 29.2055 -0.492622 0.0292687 -15.9457 -1.01333
133.161 83.4633 -9.93069 1.115 -69.4446 5.8517 7.51339 -4.40572 15.4577 -3.48349 -2.96974 4.30316 -2.96222 14.074 17.8552 7.43428 -16.8647 35.9607 -0.0 0.0 0.0 -0.0 0.0 0.0 4.48504e-15 4.69774e-14 8.04593e-14 92.253 -2.07821 -0.515652 -11.4928 -4.98996 20.7263 -0.113376 9.26197 1.31402 2.86372e-12 5.62804e-11 -4.95726e-10 3.32506e-12 9.81247e-11 -8.57849e-10 2.87871e-12 5.62805e-11 -4.95749e-10 7.73091 5.47488 0.417314 2.86578e-12 5.62771e-11 -4.95726e-10 2.90554 0.965183 0.102902 2.87084e-12 5.62776e-11 -4.95727e-10 10.2786 0.731801 0.0259123 2.86129e-12 5.62791e-11 -4.95727e-10 2.22167 -0.733487 -0.20892 4.45516e-15 4.69727e-14 8.02232e-14 -94.6268 -0.395606 10.9807 17.074 -9.37199 -32.454 0.412841 17.4211 -2.53275 -7.70492e-11 -2.63848e-10 9.68142e-11 -1.32134e-10 -4.56144e-10 1.68749e-10 -7.70515e-11 -2.63853e-10 9.68273e-11 -7.73091 5.47488 -0.417314 -7.70488e-11 -2.63851e-10 9.68293e-11 -2.90554 0.965183 -0.102902 -7.70543e-11 -2.63852e-10 9.68245e-11 -10.2786 0.731801 -0.0259123 -7.70399e-11 -2.63851e-10 9.68203e-11 -2.22167 -0.733487 0.20892 -2.03217e-16 0.0 -3.88251e-19 -1.91757 -19.5873 -7.57137 -0.0154199 27.2405 0.727457 -13.3599 -21.1823 -29.8763 2.03217e-16 0.0 3.88251e-19 3.9509 -23.2854 -13.814 0.231959 31.2996 -0.543583 -0.0331745 -17.5469 -1.09202
133.276 83.4823 -9.38138 0.6761 -69.8107 6.2432 7.08978 -4.73634 15.9616 -3.21565 -2.90497 4.45523 -2.73039 13.8872 16.6945 8.33612 -16.977 33.8682 -0.0 0.0 0.0 -0.0 0.0 0.0 -2.37831e-14 1.65509e-14 2.11737e-14 92.234 -3.37985 -1.87641 -12.3262 -5.58288 22.3192 -0.110503 9.17426 1.30127 5.78285e-10 2.20374e-10 -6.47529e-10 9.96089e-10 3.82626e-10 -1.12576e-09 5.783e-10 2.20374e-10 -6.47551e-10 7.73091 5.47488 0.417314 5.78288e-10 2.20371e-10 -6.4753e-10 2.90554 0.965183 0.102902 5.78293e-10 2.20372e-10 -6.47531e-10 10.2786 0.731801 0.0259123 5.78284e-10 2.20372e-10 -6.4753e-10 2.22167 -0.733487 -0.20892 -2.38212e-14 1.65461e-14 2.095e-14 -93.9212 1.60805 10.814 16.9434 -9.28482 -32.1107 0.407371 17.3622 -2.52309 6.08747e-10 -2.82559e-10 2.76307e-10 1.05538e-09 -5.0282e-10 4.68441e-10 6.08745e-10 -2.82563e-10 2.76315e-10 -7.73091 5.47488 -0.417314 6.08748e-10 -2.82562e-10 2.76318e-10 -2.90554 0.965183 -0.102902 6.0874e-10 -2.82564e-10 2.76315e-10 -10.2786 0.731801 -0.0259123 6.08757e-10 -2.82563e-10 2.76311e-10 -2.22167 -0.733487 0.20892 -2.03217e-16 0.0 -3.88251e-19 -1.88187 -19.2961 -6.74104 -0.0108702 26.946 0.716109 -13.3361 -20.9793 -30.0421 2.03217e-16 0.0 3.88251e-19 3.87543 -22.7627 -13.3859 0.225635 30.9053 -0.53541 -0.0308068 -17.6843 -1.07715
133.356 83.5303 -8.79258 0.5442 -70.1231 6.2023 6.30913 -4.98462 15.9728 -2.74226 -2.74044 4.47527 -2.40391 13.299 14.7967 8.8972 -16.7999 30.3153 -0.0 0.0 0.0 -0.0 0.0 0.0 -5.24742e-14 -1.37017e-14 -3.03609e-14 89.431 -4.71541 -3.283 -12.8687 -6.04658 23.3206 -0.098712 8.82551 1.25058 1.06383e-09 3.16876e-10 -8.06522e-10 1.83334e-09 5.49978e-10 -1.40503e-09 1.06384e-09 3.16877e-10 -8.06543e-10 7.73091 5.47488 0.417314 1.06383e-09 3.16874e-10 -8.06523e-10 2.90554 0.965183 0.102902 1.06383e-09 3.16876e-10 -8.06525e-10 10.2786 0.731801 0.0259123 1.06383e-09 3.16875e-10 -8.06523e-10 2.22167 -0.733487 -0.20892 -5.25225e-14 -1.37064e-14 -3.05721e-14 -90.4893 3.779 10.3157 16.4697 -9.01973 -30.8225 0.365664 16.7585 -2.4272 1.19173e-09 -1.49448e-10 4.99849e-10 2.06572e-09 -2.84303e-10 8.45859e-10 1.19172e-09 -1.49451e-10 4.99852e-10 -7.73091 5.47488 -0.417314 1.19173e-09 -1.49451e-10 4.99856e-10 -2.90554 0.965183 -0.102902 1.19172e-09 -1.49453e-10 4.99854e-10 -10.2786 0.731801 -0.0259123 1.19174e-09 -1.49453e-10 4.9985e-10 -2.22167 -0.733487 0.20892 -2.03217e-16 0.0 -3.88251e-19 -1.81891 -18.6063 -5.59449 0.00129027 26.0259 0.682362 -12.6154 -20.3025 -29.261 2.03217e-16 0.0 3.88251e-19 3.7643 -21.6126 -12.3555 0.201623 29.5067 -0.5019 -0.0529495 -17.1872 -1.16414
